<svg width="60" height="60" viewBox="0 0 60 60" fill="none" xmlns="http://www.w3.org/2000/svg">
<rect width="60" height="60" fill="white"/>
<path d="M50 44H14C11.7909 44 10 45.7909 10 48V48C10 50.2091 11.7909 52 14 52H50" stroke="black" stroke-width="2"/>
<path d="M14 47C13.4477 47 13 47.4477 13 48C13 48.5523 13.4477 49 14 49V47ZM50 47H29.8824V49H50V47ZM29.8824 47L14 47V49L29.8824 49V47Z" fill="black"/>
<path d="M49 43V10C49 7.79086 47.2091 6 45 6H14C11.7909 6 10 7.79086 10 10V48" stroke="black" stroke-width="2"/>
<rect x="17" y="9" width="27" height="3" rx="1.5" fill="black"/>
<rect x="17" y="14" width="18" height="2" rx="1" fill="black"/>
<rect x="17" y="18" width="27" height="18" rx="4" fill="#E6E6E6"/>
<rect x="17" y="38" width="18" height="2" rx="1" fill="#B2B2B2"/>
<rect x="38" y="38" width="6" height="2" rx="1" fill="#B2B2B2"/>
<path d="M20.408 24C20.424 23.644 20.442 23.284 20.462 22.92C20.482 22.552 20.504 22.19 20.528 21.834C20.556 21.474 20.584 21.126 20.612 20.79C20.644 20.454 20.678 20.138 20.714 19.842H21.29C21.39 20.014 21.498 20.218 21.614 20.454C21.734 20.686 21.854 20.934 21.974 21.198C22.098 21.458 22.218 21.718 22.334 21.978C22.45 22.234 22.554 22.468 22.646 22.68C22.742 22.468 22.846 22.234 22.958 21.978C23.074 21.718 23.192 21.458 23.312 21.198C23.436 20.934 23.558 20.686 23.678 20.454C23.798 20.218 23.908 20.014 24.008 19.842H24.548C24.588 20.138 24.622 20.454 24.65 20.79C24.682 21.126 24.71 21.474 24.734 21.834C24.758 22.19 24.78 22.552 24.8 22.92C24.824 23.284 24.844 23.644 24.86 24H24.248C24.236 23.636 24.222 23.272 24.206 22.908C24.19 22.544 24.17 22.186 24.146 21.834C24.126 21.478 24.1 21.138 24.068 20.814C24.024 20.91 23.962 21.042 23.882 21.21C23.802 21.378 23.714 21.566 23.618 21.774C23.522 21.978 23.426 22.186 23.33 22.398C23.234 22.61 23.144 22.808 23.06 22.992C22.98 23.172 22.918 23.318 22.874 23.43H22.388C22.34 23.318 22.276 23.172 22.196 22.992C22.116 22.808 22.028 22.61 21.932 22.398C21.836 22.186 21.74 21.978 21.644 21.774C21.548 21.566 21.46 21.378 21.38 21.21C21.3 21.042 21.238 20.91 21.194 20.814C21.162 21.138 21.134 21.478 21.11 21.834C21.09 22.186 21.072 22.544 21.056 22.908C21.04 23.272 21.026 23.636 21.014 24H20.408ZM27.1576 24.072C26.7896 24.072 26.4876 24.002 26.2516 23.862C26.0196 23.718 25.8476 23.524 25.7356 23.28C25.6276 23.036 25.5736 22.758 25.5736 22.446C25.5736 22.078 25.6416 21.774 25.7776 21.534C25.9136 21.29 26.0896 21.108 26.3056 20.988C26.5256 20.864 26.7556 20.802 26.9956 20.802C27.2676 20.802 27.5016 20.86 27.6976 20.976C27.8976 21.088 28.0516 21.26 28.1596 21.492C28.2676 21.72 28.3216 22.01 28.3216 22.362C28.3216 22.398 28.3196 22.438 28.3156 22.482C28.3156 22.526 28.3136 22.568 28.3096 22.608H26.1856C26.2056 22.904 26.2976 23.136 26.4616 23.304C26.6296 23.468 26.8796 23.55 27.2116 23.55C27.4036 23.55 27.5676 23.532 27.7036 23.496C27.8436 23.46 27.9496 23.426 28.0216 23.394L28.1116 23.886C28.0436 23.922 27.9196 23.962 27.7396 24.006C27.5636 24.05 27.3696 24.072 27.1576 24.072ZM26.1976 22.158H27.7336C27.7296 21.99 27.6996 21.842 27.6436 21.714C27.5876 21.586 27.5056 21.486 27.3976 21.414C27.2936 21.342 27.1616 21.306 27.0016 21.306C26.8376 21.306 26.6976 21.346 26.5816 21.426C26.4656 21.506 26.3756 21.612 26.3116 21.744C26.2476 21.872 26.2096 22.01 26.1976 22.158ZM30.1967 24.066C29.9127 24.066 29.6887 24.018 29.5247 23.922C29.3647 23.822 29.2507 23.676 29.1827 23.484C29.1187 23.292 29.0867 23.06 29.0867 22.788V20.016L29.6807 19.914V20.874H30.8507V21.372H29.6807V22.806C29.6807 22.994 29.7027 23.144 29.7467 23.256C29.7907 23.364 29.8547 23.44 29.9387 23.484C30.0267 23.528 30.1347 23.55 30.2627 23.55C30.3987 23.55 30.5167 23.536 30.6167 23.508C30.7207 23.476 30.8067 23.446 30.8747 23.418L30.9767 23.892C30.9007 23.928 30.7947 23.966 30.6587 24.006C30.5227 24.046 30.3687 24.066 30.1967 24.066ZM32.5388 24.066C32.2988 24.066 32.0848 24.034 31.8968 23.97C31.7128 23.906 31.5688 23.8 31.4648 23.652C31.3608 23.504 31.3088 23.31 31.3088 23.07C31.3088 22.834 31.3668 22.646 31.4828 22.506C31.5988 22.362 31.7568 22.258 31.9568 22.194C32.1568 22.13 32.3788 22.098 32.6228 22.098C32.7348 22.098 32.8468 22.106 32.9588 22.122C33.0748 22.138 33.1508 22.154 33.1868 22.17V22.026C33.1868 21.898 33.1688 21.78 33.1328 21.672C33.0968 21.564 33.0288 21.476 32.9288 21.408C32.8328 21.34 32.6888 21.306 32.4968 21.306C32.2968 21.306 32.1328 21.32 32.0048 21.348C31.8808 21.376 31.7828 21.404 31.7108 21.432L31.6328 20.94C31.7128 20.908 31.8348 20.878 31.9988 20.85C32.1628 20.818 32.3468 20.802 32.5508 20.802C32.8548 20.802 33.0948 20.852 33.2708 20.952C33.4508 21.052 33.5788 21.194 33.6548 21.378C33.7308 21.558 33.7688 21.766 33.7688 22.002V23.922C33.6688 23.946 33.5088 23.976 33.2888 24.012C33.0688 24.048 32.8188 24.066 32.5388 24.066ZM32.5988 23.58C32.7228 23.58 32.8348 23.576 32.9348 23.568C33.0388 23.56 33.1228 23.55 33.1868 23.538V22.614C33.1508 22.598 33.0888 22.582 33.0008 22.566C32.9128 22.55 32.8068 22.542 32.6828 22.542C32.5588 22.542 32.4368 22.556 32.3168 22.584C32.2008 22.608 32.1028 22.656 32.0228 22.728C31.9468 22.8 31.9088 22.91 31.9088 23.058C31.9088 23.254 31.9708 23.39 32.0948 23.466C32.2188 23.542 32.3868 23.58 32.5988 23.58ZM22.31 29.09C21.918 29.09 21.574 29.006 21.278 28.838C20.982 28.67 20.752 28.424 20.588 28.1C20.424 27.776 20.342 27.382 20.342 26.918C20.342 26.57 20.394 26.262 20.498 25.994C20.606 25.722 20.752 25.494 20.936 25.31C21.12 25.126 21.332 24.988 21.572 24.896C21.816 24.8 22.074 24.752 22.346 24.752C22.566 24.752 22.758 24.77 22.922 24.806C23.086 24.842 23.22 24.884 23.324 24.932C23.432 24.976 23.51 25.014 23.558 25.046L23.372 25.556C23.26 25.492 23.122 25.434 22.958 25.382C22.798 25.33 22.608 25.304 22.388 25.304C22.104 25.304 21.856 25.368 21.644 25.496C21.436 25.62 21.274 25.802 21.158 26.042C21.046 26.282 20.99 26.574 20.99 26.918C20.99 27.238 21.04 27.52 21.14 27.764C21.244 28.004 21.398 28.194 21.602 28.334C21.806 28.47 22.06 28.538 22.364 28.538C22.632 28.538 22.852 28.512 23.024 28.46C23.196 28.408 23.332 28.356 23.432 28.304L23.6 28.814C23.512 28.87 23.356 28.93 23.132 28.994C22.912 29.058 22.638 29.09 22.31 29.09ZM25.4908 29.078C25.2028 29.078 24.9468 29.01 24.7228 28.874C24.5028 28.738 24.3308 28.548 24.2068 28.304C24.0828 28.056 24.0208 27.766 24.0208 27.434C24.0208 27.106 24.0828 26.82 24.2068 26.576C24.3348 26.332 24.5088 26.142 24.7288 26.006C24.9528 25.87 25.2068 25.802 25.4908 25.802C25.7788 25.802 26.0328 25.87 26.2528 26.006C26.4728 26.142 26.6448 26.332 26.7688 26.576C26.8968 26.82 26.9608 27.106 26.9608 27.434C26.9608 27.766 26.8988 28.056 26.7748 28.304C26.6508 28.548 26.4788 28.738 26.2588 28.874C26.0428 29.01 25.7868 29.078 25.4908 29.078ZM25.4908 28.556C25.6708 28.556 25.8228 28.51 25.9468 28.418C26.0748 28.326 26.1728 28.196 26.2408 28.028C26.3128 27.86 26.3488 27.662 26.3488 27.434C26.3488 27.21 26.3128 27.014 26.2408 26.846C26.1728 26.678 26.0748 26.55 25.9468 26.462C25.8228 26.37 25.6708 26.324 25.4908 26.324C25.3148 26.324 25.1628 26.37 25.0348 26.462C24.9068 26.55 24.8068 26.678 24.7348 26.846C24.6668 27.014 24.6328 27.21 24.6328 27.434C24.6328 27.662 24.6668 27.86 24.7348 28.028C24.8068 28.196 24.9068 28.326 25.0348 28.418C25.1628 28.51 25.3148 28.556 25.4908 28.556ZM28.7176 29.054C28.4776 29.046 28.2856 29.01 28.1416 28.946C27.9976 28.878 27.8936 28.778 27.8296 28.646C27.7696 28.514 27.7396 28.344 27.7396 28.136V24.446L28.3336 24.344V28.058C28.3336 28.238 28.3656 28.362 28.4296 28.43C28.4976 28.498 28.6216 28.542 28.8016 28.562L28.7176 29.054ZM20.516 34V29.842H21.134V31.564H23.12V29.842H23.738V34H23.12V32.092H21.134V34H20.516ZM25.9879 34.066C25.6599 34.066 25.4019 34.006 25.2139 33.886C25.0259 33.762 24.8919 33.592 24.8119 33.376C24.7359 33.16 24.6979 32.908 24.6979 32.62V30.874H25.2919V32.506C25.2919 32.758 25.3159 32.96 25.3639 33.112C25.4119 33.264 25.4899 33.374 25.5979 33.442C25.7099 33.51 25.8599 33.544 26.0479 33.544C26.1799 33.544 26.3019 33.538 26.4139 33.526C26.5259 33.51 26.6039 33.496 26.6479 33.484V30.874H27.2359V33.892C27.1079 33.928 26.9359 33.966 26.7199 34.006C26.5079 34.046 26.2639 34.066 25.9879 34.066ZM29.3848 34.072C29.2208 34.072 29.0648 34.064 28.9168 34.048C28.7688 34.032 28.6328 34.01 28.5088 33.982C28.3888 33.954 28.2828 33.928 28.1908 33.904V29.446L28.7908 29.344V31.018C28.8708 30.97 28.9768 30.924 29.1088 30.88C29.2448 30.832 29.3968 30.808 29.5648 30.808C29.8648 30.808 30.1168 30.878 30.3208 31.018C30.5288 31.154 30.6868 31.344 30.7948 31.588C30.9068 31.832 30.9628 32.116 30.9628 32.44C30.9628 32.776 30.8968 33.066 30.7648 33.31C30.6368 33.554 30.4548 33.742 30.2188 33.874C29.9868 34.006 29.7088 34.072 29.3848 34.072ZM29.3788 33.556C29.5788 33.556 29.7508 33.512 29.8948 33.424C30.0388 33.332 30.1488 33.202 30.2248 33.034C30.3048 32.866 30.3448 32.664 30.3448 32.428C30.3448 32.268 30.3288 32.122 30.2968 31.99C30.2648 31.854 30.2128 31.736 30.1408 31.636C30.0728 31.536 29.9828 31.46 29.8708 31.408C29.7628 31.356 29.6308 31.33 29.4748 31.33C29.3268 31.33 29.1908 31.354 29.0668 31.402C28.9468 31.446 28.8548 31.492 28.7908 31.54V33.49C28.8428 33.506 28.9168 33.522 29.0128 33.538C29.1128 33.55 29.2348 33.556 29.3788 33.556Z" fill="black"/>
</svg>
